<?xml version="1.0" encoding="UTF-8" standalone="no"?>
<!-- Uploaded to: SVG Repo, www.svgrepo.com, Generator: SVG Repo Mixer Tools -->

<svg
   fill="#000000"
   width="180pt"
   height="180pt"
   viewBox="0 0 180 180"
   version="1.1"
   id="svg10"
   sodipodi:docname="appiconfg.svg"
   inkscape:version="1.2.2 (732a01da63, 2022-12-09)"
   xmlns:inkscape="http://www.inkscape.org/namespaces/inkscape"
   xmlns:sodipodi="http://sodipodi.sourceforge.net/DTD/sodipodi-0.dtd"
   xmlns:xlink="http://www.w3.org/1999/xlink"
   xmlns="http://www.w3.org/2000/svg"
   xmlns:svg="http://www.w3.org/2000/svg">
  <defs
     id="defs14">
    <linearGradient
       inkscape:collect="always"
       id="linearGradient1141">
      <stop
         style="stop-color:#006699;stop-opacity:1"
         offset="0"
         id="stop1137" />
      <stop
         style="stop-color:#006599;stop-opacity:1"
         offset="0.36767319"
         id="stop1145" />
      <stop
         style="stop-color:#7bd3ff;stop-opacity:1"
         offset="0.55950266"
         id="stop1147" />
      <stop
         style="stop-color:#ffffff;stop-opacity:1"
         offset="1"
         id="stop1139" />
    </linearGradient>
    <linearGradient
       inkscape:collect="always"
       xlink:href="#linearGradient1141"
       id="linearGradient1143"
       x1="19.005621"
       y1="20"
       x2="5.0036211"
       y2="8"
       gradientUnits="userSpaceOnUse"
       spreadMethod="pad"
       gradientTransform="translate(78,78)" />
  </defs>
  <sodipodi:namedview
     id="namedview12"
     pagecolor="#ffffff"
     bordercolor="#666666"
     borderopacity="1.0"
     inkscape:showpageshadow="2"
     inkscape:pageopacity="0.0"
     inkscape:pagecheckerboard="0"
     inkscape:deskcolor="#d1d1d1"
     showgrid="false"
     inkscape:zoom="3.0228815"
     inkscape:cx="92.792259"
     inkscape:cy="115.12195"
     inkscape:window-width="1920"
     inkscape:window-height="1009"
     inkscape:window-x="1912"
     inkscape:window-y="-8"
     inkscape:window-maximized="1"
     inkscape:current-layer="svg10"
     inkscape:document-units="pt" />
  <g
     inkscape:groupmode="layer"
     id="layer1"
     inkscape:label="Figure"
     transform="translate(78,78)" />
  <g
     id="g1247"
     transform="matrix(3.9777704,0,0,3.9777704,-267.99934,-267.99934)">
    <rect
       style="fill:url(#linearGradient1143);stroke-width:0.9999;stroke-linecap:round;stroke-linejoin:round"
       id="rect1112"
       width="14.002"
       height="12"
       x="83.003624"
       y="86" />
    <g
       id="g1058"
       transform="translate(78,78)">
      <path
         d="m 21.931621,11.607 c -0.202,-0.488 -0.635,-0.605 -0.928,-0.633 V 8 c 0,-1.103 -0.897,-2 -2,-2 h -6 V 4.61 c 0.305,-0.274 0.5,-0.668 0.5,-1.11 a 1.5,1.5 0 0 0 -3,0 c 0,0.442 0.195,0.836 0.5,1.11 V 6 h -6 c -1.103,0 -2,0.897 -2,2 v 2.997 l -0.082,0.006 A 1,1 0 0 0 1.993621,12 v 2 a 1,1 0 0 0 1,1 h 0.01 v 5 c 0,1.103 0.897,2 2,2 h 14 c 1.103,0 2,-0.897 2,-2 v -5 a 1,1 0 0 0 1,-1 v -1.938 a 1.006,1.006 0 0 0 -0.072,-0.455 z M 5.003621,20 V 8 h 14 l 0.001,3.996 -0.001,0.004 v 2 l 0.001,0.005 0.001,5.995 z"
         id="path2"
         style="fill:#000000" />
      <ellipse
         cx="8.5"
         cy="12"
         rx="1.5"
         ry="2"
         id="ellipse4" />
      <ellipse
         cx="15.5"
         cy="12"
         rx="1.5"
         ry="2"
         id="ellipse6" />
      <path
         d="m 8,16 h 8 v 2 H 8 Z"
         id="path8" />
    </g>
  </g>
  <g
     id="g1052"
     transform="matrix(3.6852854,0,0,3.6852854,69.151037,73.175368)">
    <ellipse
       style="fill:#ffffff;stroke:#006699;stroke-width:0.9999;stroke-linecap:round;stroke-linejoin:round"
       id="path411"
       cx="12"
       cy="12"
       rx="4.4746323"
       ry="4.4746318" />
    <text
       xml:space="preserve"
       style="font-weight:bold;font-size:5.76px;line-height:1.25;font-family:'DejaVu Sans';-inkscape-font-specification:'DejaVu Sans Bold';fill:#006699;stroke-width:0.03"
       x="9.7429686"
       y="14.099531"
       id="text357"><tspan
         sodipodi:role="line"
         id="tspan355"
         style="-inkscape-font-specification:'DejaVu Sans Bold'"
         x="9.7429686"
         y="14.099531">P</tspan></text>
  </g>
</svg>
